<svg xmlns="http://www.w3.org/2000/svg" xmlns:osb="http://www.openswatchbook.org/uri/2009/osb" xmlns:svg="http://www.w3.org/2000/svg" id="svg8" width="391.181" height="391.181" version="1.1" viewBox="0 0 103.5 103.5"><defs id="defs2"><linearGradient id="linearGradient4576" osb:paint="solid"><stop style="stop-color:#000;stop-opacity:1" id="stop4574" offset="0"/></linearGradient><linearGradient id="linearGradient4568" osb:paint="gradient"><stop style="stop-color:#fff;stop-opacity:1" id="stop4564" offset="0"/><stop style="stop-color:#fff;stop-opacity:0" id="stop4566" offset="1"/></linearGradient></defs><metadata id="metadata5"/><g id="layer1" transform="translate(0,-193.5)" style="opacity:1"><ellipse id="path3713" cx="51.398" cy="245.601" rx="49.899" ry="49.899" style="fill:#546f8c;fill-opacity:1;stroke:#000;stroke-width:.99999851;stroke-miterlimit:4;stroke-dasharray:none;stroke-opacity:1"/><path style="fill:#d6f2f9;fill-opacity:1;stroke:#27f1ff;stroke-width:2.99999571;stroke-linejoin:round;stroke-miterlimit:4;stroke-dasharray:none;stroke-opacity:.29292932" id="path3713-9" d="m 44.222828,201.29074 a 44.90865,44.908783 0 0 0 -37.7329858,44.31047 44.90865,44.908783 0 0 0 10.6267088,28.9357 z m 14.578911,0.0677 27.03548,73.05497 a 44.90865,44.908783 0 0 0 10.470132,-28.8122 44.90865,44.908783 0 0 0 -37.505612,-44.24278 z m -7.301857,12.08919 -21.063769,56.91745 h 42.127539 z m -25.415945,68.67746 -0.16588,0.44752 a 44.90865,44.908783 0 0 0 25.480538,7.93749 44.90865,44.908783 0 0 0 25.624717,-8.09252 l -0.108002,-0.29249 z"/></g></svg>